<svg version="1.1" id="Layer_1" xmlns="http://www.w3.org/2000/svg" xmlns:xlink="http://www.w3.org/1999/xlink" x="0px" y="0px"
	 width="100%" viewBox="0 0 1080 1080" enable-background="new 0 0 1080 1080" xml:space="preserve">
<path fill="#FFFFFF" opacity="1.000000" stroke="none" 
	d="
M604.000000,1081.000000 
	C404.189667,1081.000000 204.879333,1080.989258 5.569047,1081.085938 
	C1.947930,1081.087646 0.895133,1080.477905 0.896355,1076.570068 
	C1.007998,719.611267 1.009667,362.652435 0.882407,5.693674 
	C0.880919,1.520814 1.868100,0.896088 5.805304,0.897309 
	C362.597443,1.007970 719.389587,1.007774 1076.181763,0.899160 
	C1080.091919,0.897969 1081.120850,1.480123 1081.119263,5.680688 
	C1080.990234,362.472809 1080.989258,719.264954 1081.122803,1076.057129 
	C1081.124512,1080.439819 1080.024170,1081.103760 1075.943970,1081.100708 
	C918.796082,1080.981934 761.648010,1081.000000 604.000000,1081.000000 
z"/>
<path fill="#050505" opacity="1.000000" stroke="none" 
	d="
M315.005157,336.060791 
	C319.179993,338.436249 323.022217,340.656677 327.137146,343.034698 
	C327.918091,340.160431 326.374023,338.393738 325.620300,336.542389 
	C317.673309,317.021912 309.808929,297.463257 301.452087,278.118011 
	C299.721130,274.110931 301.629791,272.728058 303.967743,270.901764 
	C306.347839,269.042572 307.807037,265.957672 312.190247,268.576324 
	C330.585846,279.566345 349.275299,290.064697 367.863220,300.732483 
	C369.428192,301.630646 371.038330,302.450226 372.735779,303.364655 
	C373.715332,301.124603 372.202606,299.647522 371.566132,298.123657 
	C363.507355,278.829437 355.467865,259.524597 347.096466,240.365372 
	C345.211273,236.050888 345.237030,233.103409 349.472870,230.601578 
	C350.879517,229.770767 351.994537,228.446243 353.308746,227.289459 
	C355.014221,228.136185 355.136841,229.935501 355.725281,231.316605 
	C366.588928,256.814545 377.320221,282.369171 388.271759,307.829102 
	C389.598877,310.914307 389.440460,312.626709 386.768188,314.872223 
	C380.030090,320.534210 380.170074,320.693695 372.700195,316.439362 
	C355.666626,306.738098 338.631409,297.039703 321.593445,287.346100 
	C320.161255,286.531281 318.703491,285.761292 317.121246,284.895905 
	C316.252228,287.042450 317.682617,288.527710 318.305664,290.038239 
	C326.279205,309.369171 334.233398,328.710663 342.530975,347.903076 
	C344.111359,351.558594 343.413086,353.379333 340.561890,355.721466 
	C334.079651,361.046173 334.200836,361.198029 326.990356,357.032166 
	C304.261353,343.900543 281.526947,330.778259 258.821564,317.605957 
	C257.436371,316.802338 255.712875,316.369720 254.877151,314.820099 
	C254.941956,314.603577 254.941055,314.417084 255.033829,314.323578 
	C263.259491,306.033325 263.262115,306.030121 273.300323,311.860901 
	C287.092957,319.872589 300.881958,327.890533 315.005157,336.060791 
z"/>
<path fill="#050505" opacity="1.000000" stroke="none" 
	d="
M677.409058,242.441498 
	C673.620667,271.155670 650.043213,287.417786 622.111938,280.496582 
	C609.710510,277.423523 597.573425,273.293121 585.272583,269.796722 
	C582.557129,269.024933 582.571472,267.615417 583.229553,265.440491 
	C591.019958,239.691101 598.810120,213.941422 606.476624,188.155045 
	C607.267212,185.495911 608.065186,184.898285 610.873596,185.796707 
	C622.101746,189.388565 633.504150,192.439087 644.715942,196.078400 
	C667.069946,203.334427 679.578979,221.042511 677.409058,242.441498 
z"/>
<path fill="#050505" opacity="1.000000" stroke="none" 
	d="
M515.362732,270.481201 
	C505.362061,272.065186 496.801910,269.896240 489.439606,263.210205 
	C488.661224,265.041840 489.131226,266.647888 489.501770,268.149353 
	C490.309479,271.422180 490.094482,273.124756 485.824738,273.398773 
	C478.673309,273.857727 478.661194,274.252197 477.782379,266.965302 
	C474.554749,240.203751 471.426697,213.429825 468.062653,186.685532 
	C467.572754,182.790802 468.766388,181.522812 472.478455,181.155762 
	C479.410156,180.470383 479.464600,180.292084 480.310730,186.849106 
	C481.523529,196.247650 482.620026,205.661224 483.829132,215.585236 
	C497.010132,201.709549 511.930481,199.172943 528.089111,208.329880 
	C539.747681,214.936722 545.621948,230.977783 542.667114,245.033066 
	C539.822327,258.564667 529.990295,267.829437 515.362732,270.481201 
z"/>
<path fill="#050505" opacity="1.000000" stroke="none" 
	d="
M849.064697,539.100098 
	C858.287842,540.071350 867.041870,541.172058 875.828308,541.858582 
	C879.025330,542.108459 880.588501,542.804688 879.431274,546.229919 
	C879.326538,546.540039 879.259155,546.893860 879.292847,547.214966 
	C879.857117,552.599731 877.850281,554.865723 872.321289,553.128235 
	C871.436401,552.850220 870.388977,553.089233 869.340820,553.089233 
	C880.732300,570.036926 878.716431,589.790710 864.560364,600.816406 
	C851.015808,611.365845 828.761108,609.292480 817.303711,596.413757 
	C805.233093,582.845642 806.740784,563.672607 821.630066,548.540039 
	C813.479980,547.671753 805.853027,546.853882 798.224548,546.050903 
	C796.570007,545.876709 794.907654,545.614685 793.252625,545.639526 
	C789.421997,545.696960 788.376343,544.133545 788.855530,540.257629 
	C789.721313,533.254944 789.448975,533.179626 796.465576,533.869812 
	C813.848694,535.579773 831.227722,537.330994 849.064697,539.100098 
z"/>
<path fill="#050505" opacity="1.000000" stroke="none" 
	d="
M310.070923,687.772705 
	C310.106750,691.360962 310.034576,694.520142 310.130157,697.674194 
	C310.215973,700.505188 308.847504,701.210022 306.190002,701.371033 
	C299.196259,701.794739 299.435791,701.939941 299.561615,694.927734 
	C299.775238,683.022827 296.155762,672.308716 288.438965,663.163208 
	C285.212982,659.339966 281.132904,656.667358 275.840393,657.382568 
	C268.935028,658.315735 264.967743,664.424316 266.396790,672.362122 
	C267.779236,680.041138 269.836334,687.596436 271.376099,695.250549 
	C272.093964,698.819092 272.812592,702.518799 272.632935,706.114197 
	C271.788849,723.002319 253.971283,732.676880 239.213837,724.195129 
	C227.130127,717.250183 221.625168,705.579895 218.088318,692.786499 
	C217.299545,689.933350 217.268188,686.875366 216.824753,683.921143 
	C216.217056,679.872559 217.006134,677.791687 221.997299,677.514709 
	C226.408020,677.269958 228.000137,677.531738 227.876160,682.508667 
	C227.654999,691.386902 230.727783,699.475769 235.903122,706.693665 
	C237.154861,708.439453 238.571854,710.129395 240.175323,711.548401 
	C244.622574,715.484131 250.476349,716.331421 254.959076,713.903076 
	C259.384949,711.505432 261.542755,706.807190 260.496368,700.553101 
	C259.538055,694.825867 258.045074,689.189331 256.843903,683.500916 
	C255.985825,679.437256 254.937485,675.385803 254.472626,671.272644 
	C253.478882,662.480042 255.316437,654.602783 263.346527,649.491455 
	C271.514679,644.292236 280.069061,643.901123 288.281219,649.105103 
	C299.951691,656.500610 305.412048,668.173462 308.926636,680.964722 
	C309.495605,683.035522 309.675964,685.213074 310.070923,687.772705 
z"/>
<path fill="#050505" opacity="1.000000" stroke="none" 
	d="
M229.636078,440.226318 
	C218.999863,435.863251 208.753311,431.559662 198.422241,427.469513 
	C195.623520,426.361481 194.544785,425.461029 196.017166,422.186066 
	C199.330887,414.815582 199.105576,414.724609 206.435516,417.730072 
	C221.475266,423.896759 236.518600,430.054749 251.564651,436.206024 
	C252.015198,436.390259 252.512634,436.459808 253.079727,436.606506 
	C254.080597,435.053040 252.963104,433.742676 252.510452,432.483429 
	C248.526978,421.402008 244.455353,410.352325 240.408112,399.293854 
	C237.231384,390.613892 237.634445,387.728760 243.463394,378.842529 
	C247.707962,389.281860 252.070221,399.413452 255.901962,409.741882 
	C257.343445,413.627380 259.061676,414.050171 262.722748,412.947662 
	C276.647217,408.754547 290.666931,404.877655 305.476959,400.646606 
	C303.612762,405.225403 302.033783,408.973907 300.565369,412.765228 
	C299.831482,414.659973 298.187805,414.816589 296.589478,415.284943 
	C286.716797,418.177795 276.903412,421.285187 266.976654,423.975677 
	C263.089508,425.029266 262.067322,425.843872 263.396545,430.445038 
	C266.103912,439.816711 270.709656,446.361542 280.718536,448.259613 
	C284.861969,449.045380 285.130981,451.135986 283.297607,454.860107 
	C280.231171,461.088867 280.535217,461.240021 274.142578,458.600098 
	C259.426117,452.522766 244.710159,446.444153 229.636078,440.226318 
z"/>
<path fill="#060606" opacity="1.000000" stroke="none" 
	d="
M793.666870,664.489197 
	C784.285217,642.702209 798.278992,616.794250 820.846619,613.382751 
	C833.954346,611.401306 849.618164,619.454895 856.050171,631.482666 
	C862.360840,643.283508 860.216553,659.058472 850.866943,669.614136 
	C841.945068,679.686890 827.655396,682.717163 814.252380,677.589417 
	C811.344055,676.476807 810.505615,675.443726 811.776611,672.206909 
	C817.355469,657.998779 822.474365,643.610107 828.046021,629.399109 
	C829.521851,625.635010 828.558960,624.944580 824.937683,624.863525 
	C810.313782,624.536499 798.173706,640.101318 801.302185,655.375061 
	C802.870422,663.031799 802.592407,663.386597 793.666870,664.489197 
z"/>
<path fill="#060606" opacity="1.000000" stroke="none" 
	d="
M700.709229,319.409363 
	C686.809143,313.892426 677.132202,305.033508 674.437805,290.120544 
	C671.929138,276.235504 681.439636,259.879364 695.357422,253.714752 
	C708.768982,247.774353 725.024170,252.141327 734.800354,264.311005 
	C743.676453,275.360260 743.624146,291.870605 734.968506,303.859436 
	C733.048950,306.518158 731.806763,305.592560 729.828735,304.284332 
	C717.065613,295.842865 704.166504,287.604523 691.490173,279.036041 
	C688.114624,276.754364 687.158569,277.794556 686.286194,281.085571 
	C682.334961,295.991455 697.802734,312.843536 714.020996,310.533234 
	C720.593689,309.596954 717.709839,314.339722 718.673340,316.576477 
	C720.138672,319.978058 717.740295,320.813690 714.875427,321.024506 
	C710.178406,321.370087 705.560974,321.123810 700.709229,319.409363 
z"/>
<path fill="#060606" opacity="1.000000" stroke="none" 
	d="
M782.049316,387.190735 
	C782.648376,399.842682 788.070679,408.867401 799.725891,413.435883 
	C802.194214,414.403442 801.995361,415.295990 801.284485,417.373260 
	C798.753967,424.768036 798.591125,424.912079 791.512024,421.378265 
	C777.344849,414.306091 768.258240,395.364166 771.757385,380.197845 
	C775.176208,365.380127 789.594849,354.069336 805.294189,353.889771 
	C819.417725,353.728210 831.612854,362.457550 836.779846,376.427307 
	C841.551025,389.326874 837.814758,402.760193 826.889160,411.905609 
	C825.744019,412.864136 824.554016,413.780792 823.315796,414.614227 
	C817.778687,418.340942 817.768860,418.327881 814.354431,412.393555 
	C806.505737,398.752197 798.657776,385.110443 790.724976,371.321991 
	C785.193848,375.311157 782.735962,380.541687 782.049316,387.190735 
z"/>
<path fill="#060606" opacity="1.000000" stroke="none" 
	d="
M444.260010,255.118378 
	C434.338287,259.040375 424.856293,263.036163 415.202271,266.560547 
	C411.452026,267.929657 412.064301,269.224945 414.032227,271.606873 
	C423.865204,283.508423 445.658142,281.239838 453.717010,266.783783 
	C457.174103,260.582428 459.626801,265.193451 462.483002,266.206909 
	C466.657593,267.688202 463.888306,270.219025 462.889404,272.039093 
	C454.654541,287.043488 432.036499,294.465179 416.268433,287.453705 
	C400.996643,280.662903 392.622650,261.310577 397.930145,245.073853 
	C402.234985,231.904495 416.200104,222.222000 430.579224,222.437180 
	C444.075470,222.639114 456.693420,232.198486 460.865753,245.305786 
	C461.520782,247.363525 461.408875,248.537308 458.980194,249.364609 
	C454.120728,251.019958 449.405670,253.099426 444.260010,255.118378 
z"/>
<path fill="#060606" opacity="1.000000" stroke="none" 
	d="
M219.232742,554.259155 
	C212.466278,561.663025 215.151993,576.662231 221.173096,585.409668 
	C222.615067,587.504578 225.154480,589.233765 220.968124,591.339172 
	C217.884689,592.889771 215.612076,596.352112 212.375885,591.080139 
	C205.889557,580.513306 203.458694,569.191040 205.354324,557.133179 
	C207.062210,546.269409 214.803818,539.293518 226.187881,538.098206 
	C239.437225,536.707153 252.751083,535.939453 266.020691,534.723877 
	C268.660126,534.482117 269.457886,535.246643 269.760406,537.790894 
	C270.605591,544.898804 270.641724,545.001831 263.925140,546.655762 
	C263.795990,546.687561 263.707794,546.885864 263.416046,547.213867 
	C272.439087,555.798279 274.442017,566.512390 271.998993,578.254517 
	C270.062103,587.564270 263.251984,593.208801 254.197510,593.613281 
	C245.795151,593.988708 238.972977,588.982117 235.996613,580.106689 
	C233.529907,572.750977 233.439819,565.044617 232.924423,557.415283 
	C232.350632,548.921692 230.008331,547.667297 222.304214,551.926331 
	C221.298050,552.482544 220.429733,553.288147 219.232742,554.259155 
z"/>
<path fill="#060606" opacity="1.000000" stroke="none" 
	d="
M498.864929,840.980225 
	C494.914154,857.877747 490.949890,874.344666 487.258636,890.872559 
	C486.624207,893.713257 485.750519,894.371399 482.993195,893.712097 
	C465.230499,889.464722 447.454254,885.269531 429.635742,881.265015 
	C426.873138,880.644165 426.230499,879.912842 426.859955,877.073486 
	C428.503265,869.660461 428.328339,869.656311 435.465729,871.326294 
	C448.076263,874.276794 460.723877,877.075256 473.293365,880.189941 
	C476.105804,880.886780 476.914459,880.255005 477.481049,877.578430 
	C479.096741,869.945618 480.853912,862.335083 482.853546,854.794800 
	C483.683563,851.665161 482.471466,850.837280 479.760162,850.233582 
	C468.091156,847.635193 456.483551,844.756165 444.793976,842.258179 
	C441.723724,841.602051 440.565613,840.979248 441.548767,837.475647 
	C443.437866,830.743774 443.180664,830.678467 450.063416,832.304321 
	C460.728302,834.823486 471.417206,837.246033 482.048096,839.901062 
	C485.106323,840.664795 486.335571,839.913086 486.984558,836.797180 
	C488.846405,827.858704 491.154449,819.012390 492.975739,810.066528 
	C493.635284,806.827026 494.857269,806.263062 497.941925,806.991577 
	C506.194885,808.940613 506.207733,808.794373 504.251099,817.256226 
	C502.455536,825.021423 500.710815,832.798401 498.864929,840.980225 
z"/>
<path fill="#050505" opacity="1.000000" stroke="none" 
	d="
M808.685303,500.265686 
	C801.247437,474.463806 821.307007,451.575958 848.469727,456.610016 
	C865.319824,459.732849 875.695435,474.838135 875.005676,493.634949 
	C874.411133,509.836060 862.188416,522.446411 844.817078,524.780945 
	C828.552673,526.966797 814.236694,517.377136 808.685303,500.265686 
z"/>
<path fill="#060606" opacity="1.000000" stroke="none" 
	d="
M394.145020,776.439941 
	C405.698822,773.178955 415.488800,776.376160 424.058716,783.728821 
	C432.318268,790.814880 435.350647,799.979919 431.562897,810.242859 
	C426.434998,824.136841 418.090668,836.502869 411.459839,849.695435 
	C410.582825,851.440430 409.663666,850.898865 408.279510,850.299500 
	C399.495941,846.496277 399.477539,846.539062 404.030518,837.993530 
	C408.480408,829.641479 413.032990,821.342163 417.354004,812.924011 
	C422.853638,802.209717 420.864105,793.767334 411.788086,788.325317 
	C401.577454,782.203064 390.853851,783.893921 384.683472,793.681030 
	C378.587402,803.350403 373.381714,813.603760 368.181854,823.802979 
	C366.406311,827.285645 364.823639,827.718384 361.886841,825.569519 
	C360.692108,824.695251 359.344330,823.957703 357.962799,823.427124 
	C355.524750,822.490967 355.751740,821.259827 356.839447,819.239380 
	C366.361847,801.550903 375.811829,783.823059 385.178284,766.051514 
	C386.340576,763.846252 387.490479,763.549744 389.370605,764.934265 
	C389.768555,765.227356 390.234406,765.429993 390.675079,765.662842 
	C396.664032,768.827637 396.664276,768.827148 393.418152,775.167603 
	C393.426300,775.855835 393.620697,776.164978 394.145020,776.439941 
z"/>
<path fill="#050505" opacity="1.000000" stroke="none" 
	d="
M273.725159,476.412292 
	C279.603119,497.421997 269.285278,517.411377 250.316223,522.429382 
	C235.944183,526.231323 220.015823,519.957214 212.531403,507.546173 
	C204.839340,494.790894 206.606033,475.634827 216.488495,465.168457 
	C217.623108,463.966797 218.899994,462.846619 220.275772,461.938416 
	C222.148361,460.702332 224.681213,458.008087 226.209076,459.454193 
	C228.314774,461.447205 229.101379,464.914185 230.210571,467.841644 
	C230.678543,469.076691 229.146179,469.323029 228.397141,469.822968 
	C219.526962,475.743530 216.931290,484.214172 219.005188,494.188721 
	C220.950928,503.546875 227.519196,508.544739 236.459808,510.635925 
	C246.599243,513.007507 255.966629,509.495850 261.074860,501.642487 
	C266.663452,493.050720 266.388000,483.143646 259.891937,474.752960 
	C258.333527,472.740021 258.833344,471.864441 260.143127,470.308685 
	C265.504700,463.940155 266.527557,463.970093 271.056824,471.191498 
	C272.022278,472.730774 272.737488,474.427094 273.725159,476.412292 
z"/>
<path fill="#060606" opacity="1.000000" stroke="none" 
	d="
M755.253967,298.147522 
	C757.565430,292.806519 759.719482,287.813385 761.878723,282.808228 
	C762.539246,283.103851 762.879456,283.163361 763.085938,283.361908 
	C770.899780,290.875061 770.896301,290.876007 766.600037,300.757568 
	C761.106323,313.393280 755.595459,326.021576 750.151733,338.678802 
	C749.525391,340.135223 748.457458,341.508820 748.702698,343.392456 
	C750.460449,343.902618 751.850525,342.860718 753.323425,342.336456 
	C767.712219,337.214996 782.196533,332.336243 796.417542,326.783661 
	C801.142822,324.938660 804.139221,325.444550 806.803650,329.511932 
	C807.693665,330.870728 809.393738,331.636322 809.801392,333.613922 
	C788.107971,341.408600 766.421021,349.183685 744.755493,357.017792 
	C742.981689,357.659180 741.688477,357.634552 740.431824,356.040741 
	C739.199402,354.477661 737.847900,352.941101 736.295288,351.713318 
	C733.856201,349.784454 734.082397,347.862579 735.218445,345.237396 
	C741.942566,329.699188 748.489868,314.084412 755.253967,298.147522 
z"/>
<path fill="#060606" opacity="1.000000" stroke="none" 
	d="
M260.434692,621.719543 
	C271.182800,617.900269 273.109070,610.929565 266.043701,602.080505 
	C264.819458,600.547241 263.904633,599.394836 266.089478,598.328430 
	C268.300018,597.249390 269.682129,592.708069 272.780731,595.465149 
	C279.141479,601.124817 281.611053,608.748474 280.712067,617.084595 
	C279.879456,624.805054 274.888672,629.678528 267.701843,631.955994 
	C256.796295,635.411743 245.810379,638.634460 234.771805,641.637085 
	C231.453049,642.539856 230.059708,643.610596 231.824127,646.950745 
	C232.124496,647.519348 232.181686,648.228943 232.290985,648.883484 
	C232.568802,650.547241 234.518005,652.642212 232.683578,653.768250 
	C230.509872,655.102600 227.692978,655.823669 225.118546,655.929749 
	C223.156097,656.010620 223.433563,653.464233 222.989563,652.001343 
	C221.051392,645.615662 221.086456,645.603821 214.929016,647.426208 
	C214.611603,647.520142 214.316254,647.731750 213.996735,647.768738 
	C211.728531,648.031372 208.592819,650.394287 207.554596,648.947144 
	C205.630157,646.264648 205.036163,642.567810 204.152115,639.223572 
	C203.694946,637.494141 205.597809,637.726257 206.505829,637.339661 
	C210.075790,635.819702 215.833786,636.536377 216.973282,633.173340 
	C218.023422,630.073975 214.970062,625.724182 214.234619,621.828796 
	C213.774384,619.391235 210.268921,616.181335 216.121277,614.580933 
	C220.714630,613.324890 222.831085,613.552795 223.745483,618.663757 
	C224.495667,622.856873 225.112045,628.917725 227.831146,630.398438 
	C230.575089,631.892822 235.850983,628.821777 239.989639,627.651917 
	C246.691132,625.757568 253.369766,623.782410 260.434692,621.719543 
z"/>
<path fill="#050505" opacity="1.000000" stroke="none" 
	d="
M810.913025,448.789978 
	C807.411194,450.010498 804.165771,450.861511 801.179871,452.264587 
	C798.566162,453.492706 797.832214,452.515259 796.966125,450.227020 
	C793.849854,441.993073 793.770813,442.020050 801.781311,439.146912 
	C826.756592,430.188934 851.771484,421.338623 876.670349,412.173096 
	C880.855835,410.632355 882.639099,411.462830 883.356873,415.613922 
	C883.496155,416.419617 883.768066,417.256592 884.190979,417.949707 
	C886.192932,421.230591 884.674561,422.372955 881.530334,423.484863 
	C858.079346,431.777893 834.690552,440.246643 810.913025,448.789978 
z"/>
<path fill="#050505" opacity="1.000000" stroke="none" 
	d="
M312.172852,812.161438 
	C329.282013,791.064392 346.229279,770.295654 362.986908,749.375000 
	C365.356842,746.416321 367.083374,745.638000 369.727661,748.677979 
	C370.480194,749.543152 371.438904,750.302124 372.441040,750.863525 
	C375.534943,752.596436 374.797028,754.241760 372.889160,756.572632 
	C356.754242,776.284668 340.732666,796.089539 324.677246,815.866699 
	C323.837769,816.900818 322.996887,817.933838 322.161591,818.971252 
	C316.522095,825.975098 315.146912,825.959045 308.987030,819.180115 
	C307.987579,818.080261 307.763184,817.423157 308.795074,816.310913 
	C309.924774,815.093384 310.905060,813.737122 312.172852,812.161438 
z"/>
<path fill="#060606" opacity="1.000000" stroke="none" 
	d="
M329.071594,740.071899 
	C333.473938,735.743286 337.706696,731.741516 341.731049,727.540161 
	C343.511383,725.681519 344.576111,725.114441 346.726532,727.317871 
	C352.845306,733.587463 352.970673,733.471436 346.579834,739.765930 
	C327.738525,758.323059 308.818359,776.801270 290.130005,795.511108 
	C287.186035,798.458557 285.681244,798.478455 282.962769,795.411560 
	C278.285126,790.134521 278.075104,790.305603 282.961731,785.489502 
	C298.243378,770.428589 313.531555,755.374390 329.071594,740.071899 
z"/>
<path fill="#060606" opacity="1.000000" stroke="none" 
	d="
M802.509033,702.428711 
	C793.012878,696.266418 783.867859,690.208984 774.520325,684.482117 
	C771.640198,682.717529 771.555969,681.447693 773.321350,678.772705 
	C777.710327,672.122620 777.572144,672.032227 784.060852,676.145752 
	C799.355774,685.842224 814.586792,695.642456 829.998230,705.150085 
	C833.267639,707.166992 833.804565,708.807678 831.236145,711.521179 
	C831.125366,711.638184 831.048096,711.798950 830.990356,711.952576 
	C829.011963,717.223206 826.003479,717.642639 821.999512,713.945007 
	C821.322754,713.320007 820.328552,713.038818 818.739624,712.213867 
	C822.068359,720.482483 820.594849,727.717163 817.070740,734.819641 
	C815.764771,737.451843 814.555054,738.517273 812.028381,736.198792 
	C811.066040,735.315796 809.857178,734.643616 808.663330,734.082458 
	C806.083191,732.869690 805.517090,731.668945 807.172058,728.843079 
	C813.132812,718.664734 811.661865,710.814026 802.509033,702.428711 
z"/>
<path fill="#070707" opacity="1.000000" stroke="none" 
	d="
M675.225952,825.388306 
	C673.372803,823.861450 675.448486,822.424500 676.032166,820.943298 
	C677.788696,816.485291 681.917419,811.676941 681.109558,807.852722 
	C680.291931,803.982605 674.704407,801.103455 671.163818,797.836243 
	C670.202209,796.948914 669.087280,796.227783 668.596863,794.408630 
	C673.536194,794.941772 678.507019,795.281677 683.403503,796.078308 
	C686.492432,796.580811 687.867371,795.439392 688.955750,792.715332 
	C690.731628,788.270264 692.882202,783.974792 695.419678,778.424072 
	C696.451294,783.300293 697.736267,786.970093 697.898987,790.688965 
	C698.164429,796.753357 701.261841,798.803101 706.852661,798.925232 
	C710.605103,799.007080 714.343262,799.740479 719.279480,800.322998 
	C713.775085,803.458252 709.271790,806.158691 704.633911,808.603882 
	C702.532288,809.711975 701.866455,810.793640 702.499939,813.271484 
	C703.772278,818.248169 704.554077,823.350281 705.771729,829.598450 
	C701.197266,825.436096 697.334534,822.097778 693.692322,818.533997 
	C691.830444,816.712158 690.319153,816.517090 688.083313,817.916504 
	C684.004822,820.469299 679.728699,822.706238 675.409241,825.428833 
	C675.239136,825.520386 675.194824,825.258118 675.225952,825.388306 
z"/>
<path fill="#FFEAB3" opacity="1.000000" stroke="none" 
	d="
M955.448730,507.661804 
	C956.004578,509.034760 955.741760,509.865479 954.437866,509.885986 
	C953.749084,509.896820 953.195251,509.396942 953.215759,508.666168 
	C953.252686,507.352417 954.086182,507.116089 955.448730,507.661804 
z"/>
<path fill="#FFEAB3" opacity="1.000000" stroke="none" 
	d="
M204.312775,303.823486 
	C202.951630,302.823730 203.389557,302.063141 204.365616,301.534546 
	C204.654068,301.378357 205.409912,301.535736 205.571426,301.790436 
	C206.246841,302.855499 205.803192,303.565338 204.312775,303.823486 
z"/>
<path fill="#FFEAB3" opacity="1.000000" stroke="none" 
	d="
M957.521729,379.605042 
	C956.778259,380.491821 956.123352,381.114044 955.381104,380.178070 
	C954.954468,379.639954 954.906006,378.876495 955.555847,378.462860 
	C956.548157,377.831207 957.393616,377.938110 957.521729,379.605042 
z"/>
<path fill="#FFEAB3" opacity="1.000000" stroke="none" 
	d="
M972.574829,387.681702 
	C972.947876,389.073212 972.649170,389.917145 971.320190,389.789154 
	C970.976196,389.756073 970.402466,389.208954 970.412109,388.913513 
	C970.450745,387.726837 971.213318,387.269409 972.574829,387.681702 
z"/>
<path fill="#FFEAB3" opacity="1.000000" stroke="none" 
	d="
M717.460327,540.478577 
	C716.417847,540.887695 715.505737,541.053345 715.430115,539.898254 
	C715.372681,539.020447 716.013489,538.337158 716.908936,538.413391 
	C718.073669,538.512634 717.837524,539.449524 717.460327,540.478577 
z"/>
<path fill="#FFEAB3" opacity="1.000000" stroke="none" 
	d="
M938.479004,508.998352 
	C939.430542,507.952698 940.268372,507.890015 940.804199,509.054413 
	C941.106506,509.711395 940.815369,510.354431 940.125305,510.556671 
	C939.117065,510.852234 938.764709,510.049438 938.479004,508.998352 
z"/>
<path fill="#FFEAB3" opacity="1.000000" stroke="none" 
	d="
M224.345428,499.999390 
	C225.343018,498.887604 226.201965,498.900818 226.722824,500.078766 
	C226.874207,500.421082 226.735779,501.195038 226.469818,501.365997 
	C225.298355,502.118866 224.752747,501.242676 224.345428,499.999390 
z"/>
<path fill="#FFEAB3" opacity="1.000000" stroke="none" 
	d="
M788.180176,775.946167 
	C788.338440,774.283386 789.037292,773.960938 790.085449,774.835327 
	C790.390442,775.089844 790.687805,775.781982 790.552185,776.062073 
	C789.963135,777.278564 789.105530,777.073730 788.180176,775.946167 
z"/>
<path fill="#FFEAB3" opacity="1.000000" stroke="none" 
	d="
M419.084137,728.586365 
	C418.025116,728.314636 417.189423,727.959106 417.756744,726.917969 
	C418.084137,726.317078 418.815338,725.955139 419.397034,726.410095 
	C420.158264,727.005310 420.023895,727.819641 419.084137,728.586365 
z"/>
<path fill="#FFEAB3" opacity="1.000000" stroke="none" 
	d="
M756.691162,498.407715 
	C757.804810,498.045380 758.696838,498.101990 758.670166,499.198242 
	C758.659363,499.644104 757.843872,500.477020 757.493469,500.427856 
	C756.619385,500.305237 756.195923,499.564331 756.691162,498.407715 
z"/>
<path fill="#FFEAB3" opacity="1.000000" stroke="none" 
	d="
M970.908813,691.197266 
	C970.764465,692.342957 970.399841,693.028320 969.393372,692.620361 
	C968.824463,692.389771 968.233765,691.899597 968.656982,691.205750 
	C969.193970,690.325378 969.952332,689.848450 970.908813,691.197266 
z"/>
<path fill="#FFEAB3" opacity="1.000000" stroke="none" 
	d="
M178.624817,751.986450 
	C177.959915,752.957153 177.255173,753.173950 176.572495,752.402771 
	C176.431107,752.243042 176.441422,751.726257 176.588913,751.571594 
	C177.270538,750.856873 177.983093,750.975830 178.624817,751.986450 
z"/>
<path fill="#FFEAB3" opacity="1.000000" stroke="none" 
	d="
M506.015747,301.630981 
	C505.017212,300.951050 504.824432,300.218597 505.606110,299.520721 
	C505.768921,299.375366 506.295380,299.391510 506.467102,299.543976 
	C507.264526,300.252014 507.052979,300.971252 506.015747,301.630981 
z"/>
<path fill="#FFEAB3" opacity="1.000000" stroke="none" 
	d="
M712.831909,462.156555 
	C713.751038,462.757050 713.829895,463.378479 713.138428,463.787537 
	C712.542419,464.140198 711.708740,464.001038 711.458374,463.344543 
	C711.180115,462.614716 711.797974,462.208496 712.831909,462.156555 
z"/>
<path fill="#FFEAB3" opacity="1.000000" stroke="none" 
	d="
M813.446655,658.463501 
	C813.651855,659.770142 813.045532,660.148132 812.120483,659.807373 
	C811.823303,659.697876 811.451050,658.966431 811.562073,658.732422 
	C811.870239,658.082764 812.550598,658.026855 813.446655,658.463501 
z"/>
<path fill="#FFEAB3" opacity="1.000000" stroke="none" 
	d="
M174.139191,632.823730 
	C174.204422,631.822632 174.610413,631.219299 175.317276,631.479858 
	C175.972107,631.721375 176.092911,632.539917 175.751083,633.114868 
	C175.356583,633.778381 174.740295,633.718994 174.139191,632.823730 
z"/>
<path fill="#FFEAB3" opacity="1.000000" stroke="none" 
	d="
M910.623718,367.008301 
	C909.952698,368.034271 909.229736,368.178925 908.549805,367.397491 
	C908.401978,367.227570 908.400085,366.706757 908.547913,366.541656 
	C909.259277,365.746948 909.970459,366.001129 910.623718,367.008301 
z"/>
<path fill="#FFEAB3" opacity="1.000000" stroke="none" 
	d="
M843.683350,389.439758 
	C844.469666,389.379333 845.026978,389.536469 845.584290,389.693604 
	C845.381409,390.060638 845.254211,390.654541 844.961487,390.752167 
	C844.077820,391.046906 843.447388,390.724060 843.683350,389.439758 
z"/>
<path fill="#FFEAB3" opacity="1.000000" stroke="none" 
	d="
M190.856995,399.173035 
	C191.751282,399.739410 191.834030,400.405579 191.148422,400.692780 
	C190.726105,400.869720 189.732483,400.620544 189.570999,400.285370 
	C189.244980,399.608612 189.863602,399.220459 190.856995,399.173035 
z"/>
<path fill="#FFEAB3" opacity="1.000000" stroke="none" 
	d="
M616.214966,509.874725 
	C615.283386,509.273682 615.244995,508.660706 615.918640,508.254822 
	C616.514465,507.895844 617.319702,508.036743 617.570984,508.701996 
	C617.850708,509.442688 617.243347,509.830719 616.214966,509.874725 
z"/>
<path fill="#FFEAB3" opacity="1.000000" stroke="none" 
	d="
M109.147621,438.170410 
	C109.708542,437.222748 110.304024,437.246918 110.685265,437.880249 
	C111.030212,438.453278 110.894844,439.237854 110.256569,439.490723 
	C109.507904,439.787262 109.191315,439.161957 109.147621,438.170410 
z"/>
<path fill="#FFEAB3" opacity="1.000000" stroke="none" 
	d="
M326.297363,466.511536 
	C327.322479,466.820984 327.984253,467.366333 327.642670,468.241364 
	C327.375763,468.925110 326.626038,468.888245 326.078033,468.491486 
	C325.304108,467.931091 325.250397,467.252472 326.297363,466.511536 
z"/>
<path fill="#FFEAB3" opacity="1.000000" stroke="none" 
	d="
M840.251831,301.514709 
	C839.191040,300.731110 839.307190,300.052673 840.150330,299.596100 
	C840.413086,299.453796 841.119812,299.660126 841.302368,299.926666 
	C841.916443,300.823090 841.330017,301.309509 840.251831,301.514709 
z"/>
<path fill="#FFEAB3" opacity="1.000000" stroke="none" 
	d="
M740.540344,478.522217 
	C740.793518,479.298462 740.557922,479.699280 739.961426,479.650391 
	C739.745178,479.632721 739.397339,479.273224 739.387451,479.057037 
	C739.359985,478.458313 739.768066,478.239227 740.540344,478.522217 
z"/>
<path fill="#FFEAB3" opacity="1.000000" stroke="none" 
	d="
M135.054260,567.290344 
	C135.819901,567.646423 135.890762,568.095947 135.452042,568.478271 
	C135.288132,568.621155 134.787399,568.621765 134.627899,568.478394 
	C134.188049,568.083069 134.302490,567.638306 135.054260,567.290344 
z"/>
<path fill="#FFEAB3" opacity="1.000000" stroke="none" 
	d="
M583.714478,361.825287 
	C583.920471,362.521759 584.214172,363.419189 583.297424,363.106781 
	C582.752014,362.920898 582.884705,362.063965 583.714478,361.825287 
z"/>
<path fill="#070707" opacity="1.000000" stroke="none" 
	d="
M675.276123,825.734741 
	C675.055725,825.547913 674.827881,825.313171 674.600037,825.078430 
	C674.747009,825.156067 674.893982,825.233704 675.171204,825.546021 
	C675.301453,825.780701 675.268738,825.686829 675.276123,825.734741 
z"/>
<path fill="#FDFDFD" opacity="1.000000" stroke="none" 
	d="
M639.873840,205.993103 
	C651.445984,210.021515 660.601013,216.386902 663.916077,228.387619 
	C667.370361,240.892273 664.252502,252.263641 655.374023,261.591766 
	C646.464783,270.952240 635.108215,272.407166 623.083557,269.472565 
	C615.511597,267.624634 608.118164,265.055695 600.600281,262.969940 
	C598.103333,262.277191 597.593201,261.239990 598.360168,258.736694 
	C604.147278,239.847626 609.831604,220.926620 615.434875,201.982132 
	C616.147827,199.571671 616.846008,198.872009 619.492249,199.783676 
	C626.079224,202.052979 632.814514,203.891632 639.873840,205.993103 
z"/>
<path fill="#FCFCFC" opacity="1.000000" stroke="none" 
	d="
M487.441620,228.783752 
	C492.434143,216.446564 505.180145,210.780197 517.011597,215.351013 
	C528.431335,219.762772 534.277710,234.578934 529.430542,246.823868 
	C524.980164,258.066498 512.080566,263.531830 500.487732,259.086456 
	C490.892670,255.407166 484.927155,244.583725 486.444702,233.555496 
	C486.648285,232.075775 486.992981,230.615463 487.441620,228.783752 
z"/>
<path fill="#FCFCFC" opacity="1.000000" stroke="none" 
	d="
M839.369385,550.911621 
	C854.382019,550.316772 864.142700,557.002686 866.207642,568.955139 
	C868.337891,581.285767 860.866150,592.681152 849.204407,594.887329 
	C835.215515,597.533630 822.559387,589.731873 820.230530,577.026733 
	C817.924133,564.443604 825.804016,553.450073 839.369385,550.911621 
z"/>
<path fill="#FBFBFB" opacity="1.000000" stroke="none" 
	d="
M828.912170,669.011047 
	C822.410339,668.765076 822.420776,668.768982 824.599548,662.966858 
	C828.445740,652.724182 832.392639,642.516968 836.048950,632.206848 
	C837.212402,628.926086 838.299500,628.507141 841.083008,630.651184 
	C847.844543,635.859436 850.900269,644.539795 848.569153,652.880127 
	C845.913452,662.381714 839.322327,667.908508 828.912170,669.011047 
z"/>
<path fill="#FAFAFA" opacity="1.000000" stroke="none" 
	d="
M727.855225,272.374878 
	C731.000977,278.067291 731.548889,283.663361 729.703247,289.503784 
	C729.034912,291.618835 728.498718,293.123993 725.715332,291.252533 
	C714.867615,283.958893 703.868286,276.890869 692.900024,269.722351 
	C702.783569,257.961212 717.959351,259.066681 727.855225,272.374878 
z"/>
<path fill="#FAFAFA" opacity="1.000000" stroke="none" 
	d="
M820.774475,370.177338 
	C831.234131,381.625458 830.578857,395.402313 819.221924,403.450348 
	C812.675842,392.060211 806.200317,380.661407 799.568420,369.354309 
	C798.074402,366.807037 799.205627,366.340820 801.378479,365.755585 
	C808.512939,363.834106 814.852478,365.232697 820.774475,370.177338 
z"/>
<path fill="#F9F9F9" opacity="1.000000" stroke="none" 
	d="
M411.008179,258.962982 
	C409.274445,259.638519 408.394073,259.910461 407.920319,257.811859 
	C405.811218,248.469116 411.232330,238.620972 420.905945,234.639709 
	C430.510406,230.686905 441.304108,233.828430 446.527374,241.799881 
	C448.134094,244.251923 447.049500,244.742279 445.057159,245.522461 
	C433.814972,249.924789 422.603882,254.406403 411.008179,258.962982 
z"/>
<path fill="#FAFAFA" opacity="1.000000" stroke="none" 
	d="
M241.575180,557.426636 
	C241.469223,556.642334 241.365005,556.308044 241.387985,555.982666 
	C241.554291,553.628540 239.561462,550.189331 241.917648,549.169434 
	C244.724823,547.954224 248.273315,547.428223 251.641678,548.710754 
	C261.394012,552.424011 266.861298,567.526306 261.646667,576.653748 
	C259.640991,580.164368 256.478241,581.832886 252.529861,581.720947 
	C248.444473,581.605286 245.681122,579.303528 244.191162,575.598877 
	C241.905884,569.916870 242.193420,563.830688 241.575180,557.426636 
z"/>
<path fill="#FCFCFC" opacity="1.000000" stroke="none" 
	d="
M862.414551,480.911072 
	C869.438660,500.517212 855.644958,514.066528 837.738037,512.700012 
	C825.650940,511.777679 817.780334,502.383423 817.846741,490.030579 
	C817.909607,478.339203 826.823975,469.247406 839.361145,468.087952 
	C849.645630,467.136871 857.345276,471.340149 862.414551,480.911072 
z"/>
<path fill="#FFFFFF" opacity="1.000000" stroke="none" 
	d="
M394.150452,776.192749 
	C393.771210,776.870239 393.049530,777.548950 393.130859,775.763123 
	C393.489166,775.654602 393.684418,775.800720 394.150452,776.192749 
z"/>
</svg>